<?xml version="1.0" encoding="utf-8"?>
<!-- Generator: Adobe Illustrator 16.0.0, SVG Export Plug-In . SVG Version: 6.00 Build 0)  -->
<!DOCTYPE svg PUBLIC "-//W3C//DTD SVG 1.1//EN" "http://www.w3.org/Graphics/SVG/1.1/DTD/svg11.dtd">
<svg version="1.1" id="Layer_1" xmlns="http://www.w3.org/2000/svg" xmlns:xlink="http://www.w3.org/1999/xlink" x="0px" y="0px"
	 width="107.298px" height="94.439px" viewBox="0 0 107.298 94.439" enable-background="new 0 0 107.298 94.439"
	 xml:space="preserve">
<g>
	<defs>
		<rect id="SVGID_1_" y="0" width="107.298" height="94.439"/>
	</defs>
	<clipPath id="SVGID_2_">
		<use xlink:href="#SVGID_1_"  overflow="visible"/>
	</clipPath>
	
		<circle clip-path="url(#SVGID_2_)" fill="none" stroke="#FFFFFF" stroke-width="2.5" stroke-linecap="round" stroke-miterlimit="10" cx="41.961" cy="79.743" r="13.447"/>

		<path clip-path="url(#SVGID_2_)" fill="none" stroke="#FFFFFF" stroke-width="2.5" stroke-linecap="round" stroke-miterlimit="10" d="
		M34.597,79.743c0-4.067,3.297-7.364,7.364-7.364"/>

		<path clip-path="url(#SVGID_2_)" fill="none" stroke="#FFFFFF" stroke-width="2.5" stroke-linecap="round" stroke-miterlimit="10" d="
		M106.048,63.977v-59.9c0-1.904-1.846-3.263-3.664-2.697L59.798,14.639c-2.611,0.813-4.391,3.23-4.391,5.966v59.138"/>

		<line clip-path="url(#SVGID_2_)" fill="none" stroke="#FFFFFF" stroke-width="2.5" stroke-linecap="round" stroke-miterlimit="10" x1="106.048" y1="15.622" x2="55.407" y2="31.388"/>

		<line clip-path="url(#SVGID_2_)" fill="none" stroke="#FFFFFF" stroke-width="2.5" stroke-linecap="round" stroke-miterlimit="10" x1="1.25" y1="27.837" x2="43.73" y2="27.837"/>

		<line clip-path="url(#SVGID_2_)" fill="none" stroke="#FFFFFF" stroke-width="2.5" stroke-linecap="round" stroke-miterlimit="10" x1="1.25" y1="39.67" x2="43.73" y2="39.67"/>

		<line clip-path="url(#SVGID_2_)" fill="none" stroke="#FFFFFF" stroke-width="2.5" stroke-linecap="round" stroke-miterlimit="10" x1="1.25" y1="51.502" x2="43.73" y2="51.502"/>

		<line clip-path="url(#SVGID_2_)" fill="none" stroke="#FFFFFF" stroke-width="2.5" stroke-linecap="round" stroke-miterlimit="10" x1="1.25" y1="63.335" x2="17.854" y2="63.335"/>

		<circle clip-path="url(#SVGID_2_)" fill="none" stroke="#FFFFFF" stroke-width="2.5" stroke-linecap="round" stroke-miterlimit="10" cx="92.602" cy="63.977" r="13.446"/>

		<path clip-path="url(#SVGID_2_)" fill="none" stroke="#FFFFFF" stroke-width="2.5" stroke-linecap="round" stroke-miterlimit="10" d="
		M85.237,63.977c0-4.067,3.297-7.364,7.364-7.364"/>
</g>
</svg>
