<?xml version="1.0" encoding="utf-8"?>
<!-- Generator: Adobe Illustrator 16.0.0, SVG Export Plug-In . SVG Version: 6.00 Build 0)  -->
<!DOCTYPE svg PUBLIC "-//W3C//DTD SVG 1.1//EN" "http://www.w3.org/Graphics/SVG/1.1/DTD/svg11.dtd">
<svg version="1.1" id="Layer_1" xmlns="http://www.w3.org/2000/svg" xmlns:xlink="http://www.w3.org/1999/xlink" x="0px" y="0px"
	 width="128px" height="72px" viewBox="0 0 128.803 72.935" enable-background="new 0 0 128.803 72.935"
	 xml:space="preserve">
<g>
	<defs>
		<rect id="SVGID_1_" y="0" width="128.803" height="72.935"/>
	</defs>
	<clipPath id="SVGID_2_">
		<use xlink:href="#SVGID_1_"  overflow="visible"/>
	</clipPath>
	
		<path clip-path="url(#SVGID_2_)" fill="none" stroke="#fff" stroke-width="2.5" stroke-linecap="round" stroke-miterlimit="10" d="
		M28.266,45.962l-1.285,1.217c-2.001,1.895-2.089,5.081-0.195,7.082l0.147,0.156c1.895,2.001,5.082,2.088,7.083,0.194l3.286-3.11"/>
	
		<polyline clip-path="url(#SVGID_2_)" fill="none" stroke="#fff" stroke-width="2.5" stroke-linecap="round" stroke-miterlimit="10" points="
		58.778,7.042 29.386,7.042 11.129,1.25 	"/>
	
		<path clip-path="url(#SVGID_2_)" fill="none" stroke="#fff" stroke-width="2.5" stroke-linecap="round" stroke-miterlimit="10" d="
		M60.716,16.633l0.939,2.894c0.473,1.46,0.207,3.058-0.714,4.285l-4.619,6.16c-0.714,0.951-1.76,1.598-2.93,1.81l-1.037,0.189
		c-2.001,0.364-4.01-0.596-4.985-2.382c-0.583-1.069-0.73-2.322-0.41-3.496l3.032-11.156c0.273-1.005,0.872-1.891,1.701-2.521
		L65.148,2.209c1.044-0.792,2.37-1.114,3.66-0.889l32.835,5.716l18.66-5.786"/>
	
		<path clip-path="url(#SVGID_2_)" fill="none" stroke="#fff" stroke-width="2.5" stroke-linecap="round" stroke-miterlimit="10" d="
		M62.41,21.854l6.056-1.747c0.839-0.242,1.728-0.246,2.569-0.013l5.152,1.432c0.775,0.215,1.482,0.625,2.055,1.19l23.824,23.553
		l8.469-6.492l17.018-4.092"/>
	
		<polyline clip-path="url(#SVGID_2_)" fill="none" stroke="#fff" stroke-width="2.5" stroke-linecap="round" stroke-miterlimit="10" points="
		88.156,32.519 94.305,32.519 100.232,29.617 	"/>
	
		<path clip-path="url(#SVGID_2_)" fill="none" stroke="#fff" stroke-width="2.5" stroke-linecap="round" stroke-miterlimit="10" d="
		M64.047,67.896c0.879,0.539,1.837,0.938,2.839,1.182c2.722,0.664,5.598,0.147,7.92-1.42l1.576-1.065"/>
	
		<polyline clip-path="url(#SVGID_2_)" fill="none" stroke="#fff" stroke-width="2.5" stroke-linecap="round" stroke-miterlimit="10" points="
		37.328,51.518 19.789,40.766 1.25,35.403 	"/>
	
		<path clip-path="url(#SVGID_2_)" fill="none" stroke="#fff" stroke-width="2.5" stroke-linecap="round" stroke-miterlimit="10" d="
		M102.067,46.27l-0.262,4.438c-0.098,1.665-1.204,3.101-2.791,3.618l-1.653,0.539c-1.369,0.445-2.871,0.134-3.948-0.821
		L73.982,36.814l19.085,16.922c1.256,1.112,1.695,2.886,1.105,4.458l-0.327,0.872c-0.503,1.341-1.676,2.316-3.087,2.567
		l-2.271,0.404c-1.147,0.204-2.326-0.095-3.237-0.821L67.914,47.399l16.609,13.236c1.304,1.039,1.839,2.771,1.348,4.364
		c-0.523,1.702-2.095,2.863-3.876,2.863H79.79c-0.84,0-1.66-0.262-2.345-0.747L62.974,56.854"/>
	
		<path clip-path="url(#SVGID_2_)" fill="none" stroke="#fff" stroke-width="2.5" stroke-linecap="round" stroke-miterlimit="10" d="
		M35.493,61.35l-1.09-1.151c-1.635-1.728-1.559-4.479,0.168-6.113l5.236-4.956c1.728-1.635,4.479-1.56,6.114,0.168l1.089,1.15
		c1.635,1.729,1.56,4.479-0.168,6.114l-5.235,4.956C39.878,63.152,37.127,63.077,35.493,61.35z"/>
	
		<path clip-path="url(#SVGID_2_)" fill="none" stroke="#fff" stroke-width="2.5" stroke-linecap="round" stroke-miterlimit="10" d="
		M46.653,67.866l-1.332-0.858c-1.998-1.29-2.578-3.981-1.288-5.979l3.909-6.057c1.289-1.999,3.98-2.579,5.978-1.289l1.332,0.858
		c1.999,1.29,2.578,3.98,1.289,5.979l-3.909,6.057C51.342,68.576,48.652,69.156,46.653,67.866z"/>
	
		<path clip-path="url(#SVGID_2_)" fill="none" stroke="#fff" stroke-width="2.5" stroke-linecap="round" stroke-miterlimit="10" d="
		M56.765,70.998l-1.332-0.859c-1.998-1.29-2.578-3.981-1.288-5.979l1.304-2.021c1.29-1.998,3.98-2.578,5.979-1.288l1.332,0.859
		c1.998,1.29,2.578,3.979,1.288,5.979l-1.304,2.021C61.454,71.708,58.764,72.287,56.765,70.998z"/>
</g>
</svg>
