<?xml version="1.0" encoding="utf-8"?>
<!-- Generator: Adobe Illustrator 16.0.0, SVG Export Plug-In . SVG Version: 6.00 Build 0)  -->
<!DOCTYPE svg PUBLIC "-//W3C//DTD SVG 1.1//EN" "http://www.w3.org/Graphics/SVG/1.1/DTD/svg11.dtd">
<svg version="1.1" id="Layer_1" xmlns="http://www.w3.org/2000/svg" xmlns:xlink="http://www.w3.org/1999/xlink" x="0px" y="0px"
	 width="88.231px" height="79.728px" viewBox="0 0 88.231 79.728" enable-background="new 0 0 88.231 79.728" xml:space="preserve">
<g>
	<defs>
		<rect id="SVGID_1_" width="88.231" height="79.728"/>
	</defs>
	<clipPath id="SVGID_2_">
		<use xlink:href="#SVGID_1_"  overflow="visible"/>
	</clipPath>
	
		<path clip-path="url(#SVGID_2_)" fill="none" stroke="#29a2ff" stroke-width="2.5" stroke-linecap="round" stroke-miterlimit="10" d="
		M26.872,76.283l2.177-12.834c0,0,8.549-3.006,8.549-9.018c0-6.013-7.861-10.405-13.812-20.244
		C17.834,24.349,21.782,1.25,21.782,1.25h44.696c0,0,3.947,23.099-2.003,32.938c-5.951,9.838-13.813,14.231-13.813,20.244
		c0,6.012,8.551,9.018,8.551,9.018l2.176,12.834c0.195,1.148-0.689,2.195-1.854,2.195H28.726
		C27.562,78.478,26.677,77.431,26.872,76.283z"/>

		<path clip-path="url(#SVGID_2_)" fill="none" stroke="#29a2ff" stroke-width="2.5" stroke-linecap="round" stroke-miterlimit="10" d="
		M9.824,15.354c-1.066,6.315,8.052,7.111,8.308,1.156c0.284-6.618-6.86-12.8-13.395-7.168c-5.233,4.51-4.804,12.438,2.841,17.221
		c6.5,4.066,9.462,1.404,18.251,10.715"/>

		<path clip-path="url(#SVGID_2_)" fill="none" stroke="#29a2ff" stroke-width="2.5" stroke-linecap="round" stroke-miterlimit="10" d="
		M78.407,15.354c1.066,6.315-8.052,7.111-8.308,1.156c-0.284-6.618,6.859-12.8,13.395-7.168c5.233,4.51,4.804,12.438-2.841,17.221
		c-6.5,4.066-9.462,1.404-18.251,10.715"/>

		<line clip-path="url(#SVGID_2_)" fill="none" stroke="#29a2ff" stroke-width="2.5" stroke-linecap="round" stroke-miterlimit="10" x1="29.048" y1="63.449" x2="59.211" y2="63.449"/>

		<path clip-path="url(#SVGID_2_)" fill="none" stroke="#29a2ff" stroke-width="2.5" stroke-linecap="round" stroke-miterlimit="10" d="
		M29.048,7.14c0,3.846-1.802,13.016,0.712,20.411c2.515,7.395,7.1,9.974,7.1,9.974"/>
</g>
</svg>
