<?xml version="1.0" encoding="utf-8"?>
<!-- Generator: Adobe Illustrator 16.0.0, SVG Export Plug-In . SVG Version: 6.00 Build 0)  -->
<!DOCTYPE svg PUBLIC "-//W3C//DTD SVG 1.1//EN" "http://www.w3.org/Graphics/SVG/1.1/DTD/svg11.dtd">
<svg version="1.1" id="Layer_1" xmlns="http://www.w3.org/2000/svg" xmlns:xlink="http://www.w3.org/1999/xlink" x="0px" y="0px"
	 width="94.856px" height="94.855px" viewBox="0 0 94.856 94.855" enable-background="new 0 0 94.856 94.855" xml:space="preserve">
<g>
	<defs>
		<rect id="SVGID_1_" y="0" width="94.856" height="94.856"/>
	</defs>
	<clipPath id="SVGID_2_">
		<use xlink:href="#SVGID_1_"  overflow="visible"/>
	</clipPath>
	
		<circle clip-path="url(#SVGID_2_)" fill="none" stroke="#FFFFFF" stroke-width="2.5" stroke-linecap="round" stroke-miterlimit="10" cx="47.428" cy="47.428" r="46.178"/>
	
		<path clip-path="url(#SVGID_2_)" fill="none" stroke="#FFFFFF" stroke-width="2.5" stroke-linecap="round" stroke-linejoin="round" stroke-miterlimit="10" d="
		M61.528,91.403c-2.008-3.666-3.504-7.717-3.381-10.838c0.14-3.55,0.995-7.67-1.491-10.208c-2.005-2.047-5.231-1.997-8.057-2.467
		c-3.663-0.609-7.463-2.736-8.417-6.323c-0.976-3.668,1.303-7.345,3.57-10.389c2.004-2.691,4.599-5.58,7.953-5.493
		c4.173,0.108,7.009,4.784,11.151,5.309c3.062,0.388,6.443-1.562,9.098,0.015c2.738,1.627,2.53,5.701,4.389,8.288
		c1.761,2.45,5.479,3.779,5.621,6.793c0.116,2.421-2.224,4.116-3.706,6.035c-1.789,2.314-2.427,5.301-2.84,8.196
		c-0.204,1.431-0.368,2.881-0.626,4.304"/>
	
		<path clip-path="url(#SVGID_2_)" fill="none" stroke="#FFFFFF" stroke-width="2.5" stroke-linecap="round" stroke-linejoin="round" stroke-miterlimit="10" d="
		M63.248,39.606c1.024,2.412,4.737,3.07,6.528,1.158c0.659-0.703,1.04-1.623,1.651-2.367c0.611-0.745,1.626-1.322,2.521-0.963
		c1.073,0.43,1.278,1.886,1.015,3.012c-0.263,1.127-0.825,2.235-0.657,3.379c0.369,2.512,3.757,3.318,4.983,5.541
		c1.461,2.647-0.364,6.815,2.142,8.506c1.342,0.905,3.269,0.369,4.408-0.781c1.14-1.149,1.675-2.752,2.144-4.302
		c0.897-1.067,2.624-1.07,3.834-0.377c0.605,0.346,0.94,0.603,1.387,1.141"/>
	
		<path clip-path="url(#SVGID_2_)" fill="none" stroke="#FFFFFF" stroke-width="2.5" stroke-linecap="round" stroke-linejoin="round" stroke-miterlimit="10" d="
		M79.142,13.969c-1.028,1.678-1.851,3.556-3.365,4.812c-1.516,1.257-4.056,1.595-5.311,0.078c-1.249-1.509-0.556-3.836-1.294-5.651
		c-0.991-2.436-4.358-3.119-6.761-2.051c-2.403,1.068-4.022,3.337-5.434,5.555c-0.722,1.134-1.443,2.366-1.416,3.709
		c0.028,1.344,1.145,2.75,2.477,2.571c1.569-0.211,2.206-2.24,3.64-2.912c1.396-0.654,3.183,0.321,3.711,1.768
		c0.53,1.448,0.008,3.121-0.977,4.307c-0.985,1.186-2.366,1.968-3.753,2.639c-1.13,0.546-2.322,1.046-3.576,1.083
		c-1.255,0.037-2.594-0.477-3.233-1.557c-0.416-0.705-0.491-1.555-0.76-2.329c-0.267-0.775-0.863-1.557-1.682-1.579
		c-1.103-0.03-1.748,1.344-1.557,2.428c0.192,1.085,0.892,2.007,1.259,3.046c0.733,2.079-0.049,4.598-1.831,5.895
		c-0.574,0.417-1.242,0.724-1.709,1.258c-1.13,1.295-0.51,3.53,0.957,4.429c1.466,0.898,3.407,0.663,4.923-0.151
		c1.514-0.814,2.692-2.121,3.839-3.402"/>
	
		<path clip-path="url(#SVGID_2_)" fill="none" stroke="#FFFFFF" stroke-width="2.5" stroke-linecap="round" stroke-linejoin="round" stroke-miterlimit="10" d="
		M2.317,57.319c1.171,0.132,2.306,0.276,2.983,1.176c0.683,0.907,0.555,2.234,1.224,3.151c1.171,1.604,3.629,0.9,5.595,0.608
		c3.389-0.503,6.847,0.812,9.606,2.844c2.758,2.031,4.933,4.739,7.075,7.415c1.232,1.54,2.509,3.175,2.819,5.123
		c0.454,2.85-1.262,5.57-3.09,7.805c-0.81,0.99-1.659,1.951-2.518,2.903"/>
	
		<path clip-path="url(#SVGID_2_)" fill="none" stroke="#FFFFFF" stroke-width="2.5" stroke-linecap="round" stroke-linejoin="round" stroke-miterlimit="10" d="
		M13.865,15.71c0.163,0.575,0.389,0.851,0.858,1.265c1.291,1.137,3.492,1.376,4.058,3.001c0.538,1.543-0.857,3.041-1.224,4.634
		c-0.772,3.352,3.073,6.294,2.798,9.722c-0.259,3.219-3.783,4.908-6.284,6.951c-2.756,2.252-4.603,5.586-5.05,9.116
		c-1.77-0.524-3.578-1.054-5.422-0.992c-0.774,0.025-1.561,0.173-2.288,0.451"/>
	
		<path clip-path="url(#SVGID_2_)" fill="none" stroke="#FFFFFF" stroke-width="2.5" stroke-linecap="round" stroke-linejoin="round" stroke-miterlimit="10" d="
		M42.795,1.483c-0.389,0.593-0.936,1.149-1.29,1.766c-1.531,2.67,0.686,6.284-0.662,9.052c-1.562,3.204-6.759,3.131-8.334,6.329
		c-0.847,1.719-0.602,4.263-2.356,5.034c-1.199,0.526-2.634-0.277-3.311-1.397c-0.677-1.121-0.812-2.472-1.042-3.761
		c-0.438-2.462-1.339-4.948-3.161-6.662c-0.749-0.705-1.681-1.243-2.67-1.547"/>
	
		<path clip-path="url(#SVGID_2_)" fill="none" stroke="#FFFFFF" stroke-width="2.5" stroke-linecap="round" stroke-miterlimit="10" d="
		M57.289,37.916c1.104,0.931,1.55,1.807,1.647,3.248c0.099,1.442,0.775,3.188,2.218,3.276c1.016,0.062,1.892-0.828,2.17-1.808
		c0.276-0.979,0.101-2.023-0.076-3.025"/>
</g>
</svg>
