<?xml version="1.0" encoding="utf-8"?>
<!-- Generator: Adobe Illustrator 16.0.0, SVG Export Plug-In . SVG Version: 6.00 Build 0)  -->
<!DOCTYPE svg PUBLIC "-//W3C//DTD SVG 1.1//EN" "http://www.w3.org/Graphics/SVG/1.1/DTD/svg11.dtd">
<svg version="1.1" id="Layer_1" xmlns="http://www.w3.org/2000/svg" xmlns:xlink="http://www.w3.org/1999/xlink" x="0px" y="0px"
	 width="59.746px" height="91.768px" viewBox="0 0 59.746 91.768" enable-background="new 0 0 59.746 91.768" xml:space="preserve">
<g>
	<defs>
		<rect id="SVGID_1_" y="0" width="59.746" height="91.768"/>
	</defs>
	<clipPath id="SVGID_2_">
		<use xlink:href="#SVGID_1_"  overflow="visible"/>
	</clipPath>
	
		<path clip-path="url(#SVGID_2_)" fill="none" stroke="#FFFFFF" stroke-width="2.5" stroke-linecap="round" stroke-miterlimit="10" d="
		M12.262,81.237H7.45c-3.424,0-6.2-2.776-6.2-6.2s2.776-6.199,6.2-6.199h48.193"/>
	
		<line clip-path="url(#SVGID_2_)" fill="none" stroke="#FFFFFF" stroke-width="2.5" stroke-linecap="round" stroke-miterlimit="10" x1="58.496" y1="81.237" x2="24.493" y2="81.237"/>
	
		<path clip-path="url(#SVGID_2_)" fill="none" stroke="#FFFFFF" stroke-width="2.5" stroke-linecap="round" stroke-miterlimit="10" d="
		M1.25,75.038V7.45c0-3.424,2.776-6.2,6.2-6.2h48.995c1.133,0,2.051,0.919,2.051,2.052v63.485c0,1.133-0.918,2.051-2.051,2.051
		H29.242"/>
	
		<path clip-path="url(#SVGID_2_)" fill="none" stroke="#FFFFFF" stroke-width="2.5" stroke-linecap="round" stroke-miterlimit="10" d="
		M56.802,81.237c-1.279,0-2.317-2.776-2.317-6.2s1.038-6.199,2.317-6.199"/>
	
		<polygon clip-path="url(#SVGID_2_)" fill="none" stroke="#FFFFFF" stroke-width="2.5" stroke-linecap="round" stroke-miterlimit="10" points="
		18.378,84.838 24.494,89.307 24.494,74.762 12.262,74.762 12.262,89.307 	"/>
	
		<line clip-path="url(#SVGID_2_)" fill="none" stroke="#FFFFFF" stroke-width="2.5" stroke-linecap="round" stroke-miterlimit="10" x1="7.45" y1="63.169" x2="7.45" y2="6.563"/>
</g>
</svg>
