<?xml version="1.0" encoding="utf-8"?>
<!-- Generator: Avocode 2.6.0 - http://avocode.com -->
<svg height="80" width="80" xmlns:xlink="http://www.w3.org/1999/xlink" xmlns="http://www.w3.org/2000/svg" viewBox="0 0 80 80">
    <path stroke-width="2" stroke="#ffffff" fill="none" opacity="0.3" fill-rule="evenodd" d="M 0 0 L 80 0 Z L 80 80 Z L 0 80 Z L 0 0 Z Z" />
    <path fill="#ffffff" fill-rule="evenodd" d="M 49.81 40.64 L 43.52 40.64 Z L 43.52 57.38 Z L 37.1 57.38 Z L 37.1 40.64 Z L 32.64 40.64 Z L 32.64 34.61 Z L 37.1 34.61 Z C 37.1 34.61 37.1 32.14 37.1 29.46 C 37.1 25.41 39.73 21.7 45.8 21.7 C 48.26 21.7 50.07 21.93 50.07 21.93 L 49.93 27.56 Z C 49.93 27.56 48.07 27.55 46.05 27.55 C 43.86 27.55 43.52 28.54 43.52 30.21 L 43.52 34.61 Z L 50.1 34.61 Z L 49.81 40.64 Z Z" />
</svg>