<?xml version="1.0" encoding="utf-8"?>
<!-- Generator: Avocode 2.6.0 - http://avocode.com -->
<svg height="18" width="18" xmlns:xlink="http://www.w3.org/1999/xlink" xmlns="http://www.w3.org/2000/svg" viewBox="0 0 18 18">
    <path fill="#29a2ff" fill-rule="evenodd" d="M 17.76 17.76 C 17.59 17.92 17.38 18 17.16 18 C 16.95 18 16.74 17.92 16.57 17.76 C 16.57 17.76 12.41 13.6 12.41 13.6 C 12.84 13.24 13.24 12.84 13.59 12.41 C 13.59 12.41 17.76 16.58 17.76 16.58 C 18.08 16.9 18.08 17.43 17.76 17.76 Z M 7 14 C 3.14 14 0 10.86 0 7 C 0 3.14 3.14 0 7 0 C 10.86 0 14 3.14 14 7 C 14 10.86 10.86 14 7 14 Z M 7 1.67 C 4.06 1.67 1.67 4.06 1.67 7 C 1.67 9.94 4.06 12.33 7 12.33 C 9.94 12.33 12.33 9.94 12.33 7 C 12.33 4.06 9.94 1.67 7 1.67 Z" />
</svg>