<?xml version="1.0" encoding="utf-8"?>
<!-- Generator: Avocode 2.6.0 - http://avocode.com -->
<svg height="26" width="31" xmlns:xlink="http://www.w3.org/1999/xlink" xmlns="http://www.w3.org/2000/svg" viewBox="0 0 31 26">
    <path fill="#ffffff" fill-rule="evenodd" d="M 27.87 7.1 C 27.88 7.37 27.88 7.64 27.88 7.92 C 27.88 16.25 21.51 25.86 9.87 25.86 C 6.29 25.86 2.96 24.82 0.16 23.03 C 0.66 23.09 1.16 23.11 1.67 23.11 C 4.64 23.11 7.37 22.11 9.54 20.42 C 6.76 20.36 4.43 18.54 3.62 16.04 C 4.01 16.11 4.41 16.15 4.81 16.15 C 5.39 16.15 5.95 16.07 6.48 15.93 C 3.58 15.35 1.4 12.8 1.4 9.75 C 1.4 9.72 1.4 9.69 1.4 9.67 C 2.25 10.14 3.23 10.42 4.27 10.45 C 2.57 9.32 1.45 7.39 1.45 5.2 C 1.45 4.05 1.77 2.97 2.31 2.03 C 5.43 5.85 10.1 8.36 15.36 8.62 C 15.25 8.16 15.2 7.68 15.2 7.19 C 15.2 3.7 18.03 0.88 21.53 0.88 C 23.35 0.88 25 1.65 26.15 2.87 C 27.59 2.59 28.95 2.06 30.17 1.34 C 29.7 2.81 28.7 4.05 27.39 4.83 C 28.67 4.68 29.89 4.34 31.03 3.84 C 30.18 5.1 29.1 6.21 27.87 7.1 Z" />
</svg>