<?xml version="1.0" encoding="utf-8"?>
<!-- Generator: Avocode 2.6.0 - http://avocode.com -->
<svg height="26" width="24" xmlns:xlink="http://www.w3.org/1999/xlink" xmlns="http://www.w3.org/2000/svg" viewBox="0 0 24 26">
    <path fill="#ffffff" fill-rule="evenodd" d="M 20.02 17.34 C 19.79 17.34 19.63 17.41 19.54 17.53 C 19.44 17.66 19.39 17.88 19.39 18.17 C 19.39 18.17 19.39 18.89 19.39 18.89 C 19.39 18.89 20.63 18.89 20.63 18.89 C 20.63 18.89 20.63 18.17 20.63 18.17 C 20.63 17.88 20.58 17.66 20.48 17.53 C 20.38 17.41 20.23 17.34 20.02 17.34 Z M 14.84 17.32 C 14.74 17.32 14.64 17.34 14.55 17.39 C 14.45 17.43 14.35 17.5 14.26 17.6 C 14.26 17.6 14.26 22.01 14.26 22.01 C 14.37 22.12 14.48 22.21 14.59 22.26 C 14.7 22.31 14.81 22.33 14.93 22.33 C 15.1 22.33 15.23 22.28 15.31 22.19 C 15.39 22.09 15.43 21.92 15.43 21.7 C 15.43 21.7 15.43 18.05 15.43 18.05 C 15.43 17.81 15.38 17.63 15.28 17.5 C 15.18 17.38 15.03 17.32 14.84 17.32 Z M 23.84 14.64 C 23.84 12.93 22.34 11.55 20.49 11.55 C 17.98 11.45 15.42 11.4 12.81 11.4 C 12.67 11.4 12.54 11.4 12.4 11.4 C 12.26 11.4 12.13 11.4 11.99 11.4 C 9.38 11.4 6.82 11.45 4.31 11.55 C 2.46 11.55 0.96 12.93 0.96 14.64 C 0.85 15.99 0.8 17.35 0.81 18.7 C 0.8 20.05 0.85 21.4 0.96 22.76 C 0.96 24.47 2.46 25.85 4.31 25.85 C 6.95 25.96 9.65 26 12.4 26 C 15.15 26 17.85 25.96 20.49 25.85 C 22.34 25.85 23.84 24.47 23.84 22.76 C 23.95 21.4 24 20.05 24 18.7 C 24 17.35 23.95 15.99 23.84 14.64 Z M 5.82 23.36 C 5.82 23.36 4.24 23.36 4.24 23.36 C 4.24 23.36 4.24 15.16 4.24 15.16 C 4.24 15.16 2.6 15.16 2.6 15.16 C 2.6 15.16 2.6 13.77 2.6 13.77 C 2.6 13.77 7.46 13.77 7.46 13.77 C 7.46 13.77 7.46 15.16 7.46 15.16 C 7.46 15.16 5.82 15.16 5.82 15.16 C 5.82 15.16 5.82 23.36 5.82 23.36 Z M 11.46 23.36 C 11.46 23.36 10.05 23.36 10.05 23.36 C 10.05 23.36 10.05 22.58 10.05 22.58 C 9.8 22.86 9.52 23.08 9.25 23.23 C 8.96 23.38 8.69 23.46 8.43 23.46 C 8.1 23.46 7.86 23.35 7.69 23.14 C 7.53 22.93 7.45 22.62 7.45 22.19 C 7.45 22.19 7.45 16.28 7.45 16.28 C 7.45 16.28 8.85 16.28 8.85 16.28 C 8.85 16.28 8.85 21.7 8.85 21.7 C 8.85 21.87 8.88 21.99 8.94 22.07 C 9 22.14 9.1 22.18 9.23 22.18 C 9.33 22.18 9.46 22.13 9.62 22.03 C 9.78 21.93 9.92 21.81 10.05 21.65 C 10.05 21.65 10.05 16.28 10.05 16.28 C 10.05 16.28 11.46 16.28 11.46 16.28 C 11.46 16.28 11.46 23.36 11.46 23.36 Z M 16.88 21.89 C 16.88 22.39 16.77 22.78 16.55 23.05 C 16.33 23.31 16.01 23.45 15.59 23.45 C 15.32 23.45 15.07 23.39 14.85 23.29 C 14.64 23.19 14.44 23.03 14.26 22.81 C 14.26 22.81 14.26 23.36 14.26 23.36 C 14.26 23.36 12.83 23.36 12.83 23.36 C 12.83 23.36 12.83 13.77 12.83 13.77 C 12.83 13.77 14.26 13.77 14.26 13.77 C 14.26 13.77 14.26 16.86 14.26 16.86 C 14.45 16.64 14.65 16.47 14.86 16.36 C 15.07 16.25 15.29 16.19 15.51 16.19 C 15.95 16.19 16.29 16.35 16.53 16.65 C 16.76 16.95 16.88 17.39 16.88 17.97 C 16.88 17.97 16.88 21.89 16.88 21.89 Z M 22.08 19.99 C 22.08 19.99 19.39 19.99 19.39 19.99 C 19.39 19.99 19.39 21.32 19.39 21.32 C 19.39 21.69 19.43 21.95 19.53 22.09 C 19.62 22.24 19.78 22.31 20 22.31 C 20.23 22.31 20.4 22.25 20.49 22.13 C 20.58 22 20.63 21.74 20.63 21.32 C 20.63 21.32 20.63 20.83 20.63 20.83 C 20.63 20.83 22.08 20.83 22.08 20.83 C 22.08 20.83 22.08 21.36 22.08 21.36 C 22.08 22.08 21.9 22.63 21.55 23 C 21.2 23.36 20.67 23.55 19.97 23.55 C 19.34 23.55 18.84 23.35 18.48 22.97 C 18.12 22.58 17.94 22.04 17.94 21.36 C 17.94 21.36 17.94 18.19 17.94 18.19 C 17.94 17.57 18.14 17.07 18.54 16.68 C 18.93 16.3 19.45 16.11 20.08 16.11 C 20.72 16.11 21.21 16.28 21.56 16.64 C 21.91 17 22.08 17.51 22.08 18.19 C 22.08 18.19 22.08 19.99 22.08 19.99 Z M 8.05 0 C 8.05 0 7.07 3.83 7.07 3.83 C 7.07 3.83 6.97 3.83 6.97 3.83 C 6.97 3.83 5.94 0 5.94 0 C 5.94 0 4.35 0 4.35 0 C 4.35 0 6.24 5.79 6.24 5.79 C 6.24 5.79 6.24 9.59 6.24 9.59 C 6.24 9.59 7.82 9.59 7.82 9.59 C 7.82 9.59 7.82 5.61 7.82 5.61 C 7.82 5.61 9.66 0 9.66 0 C 9.66 0 8.05 0 8.05 0 Z M 11.19 8.38 C 11.09 8.28 11.04 8.13 11.04 7.93 C 11.04 7.93 11.04 4.08 11.04 4.08 C 11.04 3.92 11.09 3.8 11.2 3.7 C 11.31 3.61 11.45 3.56 11.62 3.56 C 11.8 3.56 11.95 3.61 12.07 3.7 C 12.18 3.8 12.24 3.92 12.24 4.08 C 12.24 4.08 12.24 7.93 12.24 7.93 C 12.24 8.12 12.19 8.27 12.07 8.38 C 11.96 8.49 11.81 8.54 11.62 8.54 C 11.43 8.54 11.29 8.49 11.19 8.38 M 10.16 2.82 C 9.78 3.15 9.59 3.58 9.59 4.13 C 9.59 4.13 9.59 7.8 9.59 7.8 C 9.59 8.4 9.78 8.88 10.15 9.23 C 10.51 9.59 11.01 9.77 11.62 9.77 C 12.26 9.77 12.76 9.59 13.13 9.25 C 13.49 8.91 13.68 8.43 13.68 7.82 C 13.68 7.82 13.68 4.17 13.68 4.17 C 13.68 3.63 13.49 3.19 13.12 2.85 C 12.75 2.51 12.27 2.34 11.69 2.34 C 11.05 2.34 10.54 2.5 10.16 2.82 M 17.48 2.52 C 17.48 2.52 17.48 7.88 17.48 7.88 C 17.35 8.04 17.2 8.16 17.05 8.26 C 16.88 8.36 16.75 8.41 16.65 8.41 C 16.52 8.41 16.43 8.38 16.37 8.3 C 16.31 8.23 16.28 8.11 16.28 7.94 C 16.28 7.94 16.28 2.52 16.28 2.52 C 16.28 2.52 14.87 2.52 14.87 2.52 C 14.87 2.52 14.87 8.43 14.87 8.43 C 14.87 8.85 14.95 9.16 15.12 9.37 C 15.28 9.58 15.53 9.69 15.85 9.69 C 16.12 9.69 16.39 9.61 16.67 9.46 C 16.95 9.31 17.22 9.09 17.48 8.81 C 17.48 8.81 17.48 9.59 17.48 9.59 C 17.48 9.59 18.89 9.59 18.89 9.59 C 18.89 9.59 18.89 2.52 18.89 2.52 C 18.89 2.52 17.48 2.52 17.48 2.52 Z" />
</svg>