<?xml version="1.0" encoding="utf-8"?>
<!-- Generator: Avocode 2.6.0 - http://avocode.com -->
<svg height="26" width="26" xmlns:xlink="http://www.w3.org/1999/xlink" xmlns="http://www.w3.org/2000/svg" viewBox="0 0 26 26">
    <path fill="#ffffff" fill-rule="evenodd" d="M 23.79 0 C 23.79 0 1.99 0 1.99 0 C 0.89 0 0 0.9 0 2.01 C 0 2.01 0 23.99 0 23.99 C 0 25.1 0.89 26 1.99 26 C 1.99 26 13.95 26 13.95 26 C 13.95 26 13.95 15.77 13.95 15.77 C 13.95 15.77 11.2 15.77 11.2 15.77 C 11.2 15.77 11.2 11.93 11.2 11.93 C 11.2 11.93 13.95 11.93 13.95 11.93 C 13.95 11.93 13.95 10.45 13.95 8.8 C 13.95 6.3 15.56 4.02 19.24 4.02 C 20.73 4.02 21.84 4.16 21.84 4.16 C 21.84 4.16 21.75 7.63 21.75 7.63 C 21.75 7.63 20.68 7.62 19.45 7.62 C 18.13 7.62 17.96 8.23 17.96 9.26 C 17.96 9.26 17.96 11.93 17.96 11.93 C 17.96 11.93 21.86 11.93 21.86 11.93 C 21.86 11.93 21.26 15.77 21.26 15.77 C 21.26 15.77 17.96 15.77 17.96 15.77 C 17.96 15.77 17.96 26 17.96 26 C 17.96 26 23.79 26 23.79 26 C 24.89 26 25.78 25.1 25.78 23.99 C 25.78 23.99 25.78 2.01 25.78 2.01 C 25.78 0.9 24.89 0 23.79 0 Z" />
</svg>