<?xml version="1.0" encoding="utf-8"?>
<!-- Generator: Adobe Illustrator 16.0.0, SVG Export Plug-In . SVG Version: 6.00 Build 0)  -->
<!DOCTYPE svg PUBLIC "-//W3C//DTD SVG 1.1//EN" "http://www.w3.org/Graphics/SVG/1.1/DTD/svg11.dtd">
<svg version="1.1" id="Layer_1" xmlns="http://www.w3.org/2000/svg" xmlns:xlink="http://www.w3.org/1999/xlink" x="0px" y="0px"
	 width="96.279px" height="71.602px" viewBox="0 0 96.279 71.602" enable-background="new 0 0 96.279 71.602" xml:space="preserve">
<g>
	<defs>
		<rect id="SVGID_1_" y="0" width="96.279" height="71.602"/>
	</defs>
	<clipPath id="SVGID_2_">
		<use xlink:href="#SVGID_1_"  overflow="visible"/>
	</clipPath>
	
		<path clip-path="url(#SVGID_2_)" fill="none" stroke="#FFFFFF" stroke-width="2.5" stroke-linecap="round" stroke-miterlimit="10" d="
		M93.243,60.948H3.035c-0.986,0-1.785-0.801-1.785-1.786V3.036c0-0.986,0.799-1.786,1.785-1.786h90.208
		c0.986,0,1.786,0.8,1.786,1.786v56.126C95.029,60.147,94.229,60.948,93.243,60.948z"/>
	
		<line clip-path="url(#SVGID_2_)" fill="none" stroke="#FFFFFF" stroke-width="2.5" stroke-linecap="round" stroke-miterlimit="10" x1="95.029" y1="49.353" x2="1.25" y2="49.353"/>
	<path clip-path="url(#SVGID_2_)" fill="#FFFFFF" d="M81.967,55.501c0,0.805-0.652,1.457-1.457,1.457s-1.457-0.652-1.457-1.457
		c0-0.806,0.652-1.457,1.457-1.457S81.967,54.695,81.967,55.501"/>
	<path clip-path="url(#SVGID_2_)" fill="#FFFFFF" d="M86.604,55.501c0,0.805-0.651,1.457-1.456,1.457
		c-0.806,0-1.457-0.652-1.457-1.457c0-0.806,0.651-1.457,1.457-1.457C85.952,54.044,86.604,54.695,86.604,55.501"/>
	<path clip-path="url(#SVGID_2_)" fill="#FFFFFF" d="M91.241,55.501c0,0.805-0.652,1.457-1.457,1.457s-1.457-0.652-1.457-1.457
		c0-0.806,0.652-1.457,1.457-1.457S91.241,54.695,91.241,55.501"/>
	
		<line clip-path="url(#SVGID_2_)" fill="none" stroke="#FFFFFF" stroke-width="2.5" stroke-linecap="round" stroke-miterlimit="10" x1="43.604" y1="54.774" x2="52.676" y2="54.774"/>
	
		<polyline clip-path="url(#SVGID_2_)" fill="none" stroke="#FFFFFF" stroke-width="2.5" stroke-linecap="round" stroke-miterlimit="10" points="
		51.494,60.948 51.494,66.553 84.329,70.352 	"/>
	
		<polyline clip-path="url(#SVGID_2_)" fill="none" stroke="#FFFFFF" stroke-width="2.5" stroke-linecap="round" stroke-miterlimit="10" points="
		44.785,60.948 44.785,66.553 11.95,70.352 	"/>
</g>
</svg>
