<?xml version="1.0" encoding="utf-8"?>
<!-- Generator: Avocode 2.6.0 - http://avocode.com -->
<svg height="30" width="67" xmlns:xlink="http://www.w3.org/1999/xlink" xmlns="http://www.w3.org/2000/svg" viewBox="0 0 67 30">
    <path fill="#ffffff"  fill-rule="evenodd" d="M 64.14 21.61 C 64.14 21.61 64.14 17.11 64.14 17.11 C 64.14 16.4 64.05 15.91 63.87 15.63 C 63.7 15.36 63.39 15.23 62.96 15.23 C 62.42 15.23 62.04 15.41 61.83 15.79 C 61.62 16.17 61.51 16.95 61.51 18.12 C 61.51 18.12 61.51 21.61 61.51 21.61 C 61.51 21.61 58.72 21.61 58.72 21.61 C 58.72 21.61 58.72 17.11 58.72 17.11 C 58.72 16.39 58.64 15.89 58.46 15.63 C 58.29 15.36 57.99 15.23 57.55 15.23 C 57.01 15.23 56.63 15.41 56.42 15.78 C 56.2 16.16 56.09 16.93 56.09 18.12 C 56.09 18.12 56.09 21.61 56.09 21.61 C 56.09 21.61 53.29 21.61 53.29 21.61 C 53.29 21.61 53.29 13.36 53.29 13.36 C 53.29 13.36 56.13 13.36 56.13 13.36 C 56.13 13.36 56.13 14.8 56.13 14.8 C 56.47 14.22 56.86 13.79 57.31 13.51 C 57.75 13.24 58.28 13.1 58.89 13.1 C 59.55 13.1 60.1 13.23 60.52 13.49 C 60.94 13.75 61.25 14.14 61.43 14.65 C 61.75 14.13 62.14 13.74 62.6 13.49 C 63.06 13.23 63.6 13.1 64.22 13.1 C 64.72 13.1 65.15 13.18 65.52 13.35 C 65.89 13.52 66.2 13.77 66.45 14.1 C 66.65 14.36 66.79 14.66 66.87 15.01 C 66.96 15.36 67 15.93 67 16.71 C 67 16.71 67 16.89 67 16.89 C 67 16.89 67 21.61 67 21.61 C 67 21.61 64.14 21.61 64.14 21.61 Z M 50.28 20.64 C 49.83 21.06 49.33 21.39 48.79 21.6 C 48.24 21.82 47.65 21.93 47.04 21.93 C 46.41 21.93 45.82 21.82 45.27 21.6 C 44.72 21.39 44.23 21.06 43.8 20.64 C 43.37 20.23 43.04 19.75 42.81 19.21 C 42.58 18.68 42.47 18.11 42.47 17.51 C 42.47 16.91 42.58 16.34 42.81 15.81 C 43.03 15.27 43.36 14.79 43.8 14.37 C 44.23 13.95 44.71 13.63 45.26 13.42 C 45.81 13.21 46.4 13.1 47.04 13.1 C 47.67 13.1 48.26 13.21 48.81 13.42 C 49.35 13.63 49.84 13.95 50.28 14.37 C 50.72 14.8 51.05 15.28 51.28 15.81 C 51.51 16.35 51.62 16.91 51.62 17.51 C 51.62 18.11 51.51 18.67 51.28 19.2 C 51.05 19.74 50.71 20.21 50.28 20.64 Z M 48.29 16.06 C 47.98 15.7 47.56 15.53 47.04 15.53 C 46.51 15.53 46.09 15.7 45.78 16.06 C 45.48 16.41 45.32 16.9 45.32 17.51 C 45.32 18.13 45.48 18.61 45.78 18.96 C 46.08 19.31 46.5 19.49 47.04 19.49 C 47.57 19.49 47.99 19.31 48.29 18.96 C 48.6 18.61 48.75 18.13 48.75 17.51 C 48.75 16.9 48.6 16.41 48.29 16.06 Z M 38.23 21.91 C 37.58 21.91 36.98 21.84 36.43 21.68 C 35.89 21.53 35.38 21.29 34.92 20.97 C 34.03 20.38 33.36 19.62 32.89 18.71 C 32.43 17.8 32.19 16.78 32.19 15.64 C 32.19 14.73 32.34 13.9 32.64 13.15 C 32.93 12.4 33.38 11.72 33.97 11.11 C 34.53 10.53 35.17 10.09 35.87 9.8 C 36.58 9.51 37.37 9.37 38.23 9.37 C 38.75 9.37 39.27 9.43 39.77 9.56 C 40.28 9.68 40.79 9.87 41.31 10.12 C 41.31 10.12 41.31 13.68 41.31 13.68 C 40.86 13.19 40.42 12.82 39.98 12.59 C 39.54 12.36 39.07 12.24 38.56 12.24 C 37.63 12.24 36.88 12.56 36.3 13.2 C 35.73 13.84 35.44 14.68 35.44 15.71 C 35.44 16.66 35.73 17.46 36.32 18.09 C 36.91 18.72 37.66 19.04 38.56 19.04 C 39.07 19.04 39.54 18.92 39.98 18.69 C 40.42 18.46 40.86 18.09 41.31 17.59 C 41.31 17.59 41.31 21.16 41.31 21.16 C 40.79 21.41 40.28 21.6 39.77 21.73 C 39.27 21.85 38.75 21.91 38.23 21.91 Z M 0 0 C 0 0 30 0 30 0 C 30 0 30 30 30 30 C 30 30 0 30 0 30 C 0 30 0 0 0 0 Z M 23.94 21.36 C 23.94 21.36 26.85 21.36 26.85 21.36 C 26.85 21.36 26.85 13.08 26.85 13.08 C 26.85 13.08 23.94 13.08 23.94 13.08 C 23.94 13.08 23.94 21.36 23.94 21.36 Z M 24.22 11.11 C 24.56 11.45 24.95 11.56 25.34 11.56 C 25.79 11.56 26.18 11.45 26.52 11.11 C 26.85 10.77 27.02 10.43 27.02 9.93 C 27.02 9.42 26.85 9.08 26.52 8.74 C 26.18 8.41 25.79 8.29 25.34 8.29 C 24.95 8.29 24.56 8.41 24.22 8.74 C 23.88 9.08 23.72 9.42 23.72 9.93 C 23.72 10.43 23.88 10.77 24.22 11.11 Z M 16.6 21.65 C 17.28 21.65 17.67 21.53 18 21.36 C 18.51 21.14 18.84 20.8 19.07 20.46 C 19.07 20.46 19.18 20.46 19.18 20.46 C 19.18 20.46 19.18 21.36 19.18 21.36 C 19.18 21.36 22.15 21.36 22.15 21.36 C 22.15 21.36 22.15 13.08 22.15 13.08 C 22.15 13.08 19.18 13.08 19.18 13.08 C 19.18 13.08 19.18 13.93 19.18 13.93 C 18.62 13.25 17.67 12.86 16.6 12.86 C 15.37 12.86 14.48 13.31 13.64 14.15 C 12.8 15 12.46 16.01 12.46 17.14 C 12.46 18.49 12.8 19.56 13.64 20.29 C 14.48 21.14 15.49 21.65 16.6 21.65 Z M 2.83 21.36 C 2.83 21.36 5.97 21.36 5.97 21.36 C 5.97 21.36 5.97 16.74 5.97 16.74 C 5.97 16.74 8.88 21.36 8.88 21.36 C 8.88 21.36 12.8 21.36 12.8 21.36 C 12.8 21.36 8.99 16.41 8.99 16.41 C 9.83 16.24 10.5 15.73 11.01 15.17 C 11.4 14.6 11.68 13.81 11.68 12.97 C 11.68 11.67 11.34 10.77 10.5 10.15 C 9.66 9.59 8.77 9.25 7.53 9.25 C 7.53 9.25 2.83 9.25 2.83 9.25 C 2.83 9.25 2.83 21.36 2.83 21.36 Z M 8.43 13.25 C 8.43 14.15 7.7 14.6 6.19 14.6 C 6.19 14.6 5.97 14.6 5.97 14.6 C 5.97 14.6 5.97 11.67 5.97 11.67 C 5.97 11.67 6.19 11.67 6.19 11.67 C 7.7 11.67 8.43 12.18 8.43 13.25 Z M 17.33 15.39 C 17.95 15.39 18.34 15.56 18.73 15.9 C 19.07 16.24 19.18 16.74 19.18 17.14 C 19.18 17.81 19.07 18.21 18.73 18.55 C 18.34 18.89 17.95 19.05 17.33 19.05 C 16.77 19.05 16.44 18.89 16.05 18.55 C 15.71 18.21 15.49 17.81 15.49 17.14 C 15.49 16.74 15.71 16.24 16.05 15.9 C 16.44 15.56 16.77 15.39 17.33 15.39 Z" />
</svg>
